<svg xmlns="http://www.w3.org/2000/svg" viewBox="0 0 64 64">
  <!-- 背景円 -->
  <circle cx="32" cy="32" r="32" fill="#0f2b4e"/>

  <!-- 車体（ボディ下部） -->
  <rect x="8" y="36" width="48" height="12" rx="4" fill="#3b9eff"/>

  <!-- 車体（ルーフ） -->
  <path d="M16 36 L20 24 Q22 20 26 20 L38 20 Q42 20 44 24 L48 36 Z" fill="#1e5fa8"/>

  <!-- フロントガラス -->
  <path d="M30 22 L37 22 Q40 22 42 25 L44 32 L30 32 Z" fill="#a8d4ff" opacity="0.85"/>

  <!-- リアガラス -->
  <path d="M34 22 L27 22 Q24 22 22 25 L20 32 L34 32 Z" fill="#a8d4ff" opacity="0.85"/>

  <!-- Bピラー -->
  <rect x="31" y="21" width="2" height="11" fill="#0f2b4e" opacity="0.5"/>

  <!-- 左タイヤ -->
  <circle cx="18" cy="48" r="7" fill="#1a1a2e"/>
  <circle cx="18" cy="48" r="4" fill="#555"/>
  <circle cx="18" cy="48" r="2" fill="#aaa"/>

  <!-- 右タイヤ -->
  <circle cx="46" cy="48" r="7" fill="#1a1a2e"/>
  <circle cx="46" cy="48" r="4" fill="#555"/>
  <circle cx="46" cy="48" r="2" fill="#aaa"/>

  <!-- ヘッドライト -->
  <rect x="9" y="38" width="7" height="4" rx="2" fill="#fff9c4" opacity="0.95"/>
  <!-- テールライト -->
  <rect x="48" y="38" width="7" height="4" rx="2" fill="#ff4444" opacity="0.9"/>

  <!-- ドアライン -->
  <line x1="32" y1="36" x2="32" y2="46" stroke="#0f2b4e" stroke-width="1.2" opacity="0.4"/>

  <!-- ドアハンドル左 -->
  <rect x="22" y="39" width="6" height="1.5" rx="0.75" fill="rgba(255,255,255,0.4)"/>
  <!-- ドアハンドル右 -->
  <rect x="36" y="39" width="6" height="1.5" rx="0.75" fill="rgba(255,255,255,0.4)"/>
</svg>
